HIERARCHY
ROOT Hips
{
  OFFSET -43.3411 73.6987 0
  CHANNELS 6 Xposition Yposition Zposition Zrotation Xrotation Yrotation
  JOINT Bip01_Pelvis
  {
    OFFSET 0 0 0
    CHANNELS 6 Xposition Yposition Zposition Zrotation Xrotation Yrotation
    JOINT BN_Tail_01
    {
      OFFSET -18.6385 -9.591 -2.032e-005
      CHANNELS 6 Xposition Yposition Zposition Zrotation Xrotation Yrotation
      JOINT BN_Tail_02
      {
        OFFSET 20.9743 0 0
        CHANNELS 6 Xposition Yposition Zposition Zrotation Xrotation Yrotation
        JOINT BN_Tail_03
        {
          OFFSET 20.3015 0 0
          CHANNELS 6 Xposition Yposition Zposition Zrotation Xrotation Yrotation
          JOINT BN_Tail_04
          {
            OFFSET 21.6394 -9.91821e-005 0
            CHANNELS 6 Xposition Yposition Zposition Zrotation Xrotation Yrotation
            End Site
            {
              OFFSET 0 0 0
            }
          }
        }
      }
    }
    JOINT Bip01_Spine
    {
      OFFSET 22.1878 -0.659386 3.048e-005
      CHANNELS 6 Xposition Yposition Zposition Zrotation Xrotation Yrotation
      JOINT Bip01_R_Thigh
      {
        OFFSET -22.1873 0.677109 -17.1024
        CHANNELS 6 Xposition Yposition Zposition Zrotation Xrotation Yrotation
        JOINT Bip01_R_Calf
        {
          OFFSET 34.2647 0 0
          CHANNELS 6 Xposition Yposition Zposition Zrotation Xrotation Yrotation
          JOINT Bip01_R_HorseLink
          {
            OFFSET 20.4429 0 0
            CHANNELS 6 Xposition Yposition Zposition Zrotation Xrotation Yrotation
            JOINT Bip01_R_Foot
            {
              OFFSET 16.5673 0 0
              CHANNELS 6 Xposition Yposition Zposition Zrotation Xrotation Yrotation
              JOINT Bip01_R_Toe0
              {
                OFFSET 9.18784 6.94841 0
                CHANNELS 6 Xposition Yposition Zposition Zrotation Xrotation Yrotation
                JOINT Bip01_R_Toe0Nub
                {
                  OFFSET 1.01907 0 0
                  CHANNELS 6 Xposition Yposition Zposition Zrotation Xrotation Yrotation
                  End Site
                  {
                    OFFSET 0 0 0
                  }
                }
              }
            }
          }
        }
      }
      JOINT Bip01_L_Thigh
      {
        OFFSET -22.1873 0.67701 17.1024
        CHANNELS 6 Xposition Yposition Zposition Zrotation Xrotation Yrotation
        JOINT Bip01_L_Calf
        {
          OFFSET 34.2647 0 0
          CHANNELS 6 Xposition Yposition Zposition Zrotation Xrotation Yrotation
          JOINT Bip01_L_HorseLink
          {
            OFFSET 20.4429 0 0
            CHANNELS 6 Xposition Yposition Zposition Zrotation Xrotation Yrotation
            JOINT Bip01_L_Foot
            {
              OFFSET 16.5673 0 0
              CHANNELS 6 Xposition Yposition Zposition Zrotation Xrotation Yrotation
              JOINT Bip01_L_Toe0
              {
                OFFSET 9.18784 6.9484 1.14441e-005
                CHANNELS 6 Xposition Yposition Zposition Zrotation Xrotation Yrotation
                JOINT Bip01_L_Toe0Nub
                {
                  OFFSET 1.01907 0 0
                  CHANNELS 6 Xposition Yposition Zposition Zrotation Xrotation Yrotation
                  End Site
                  {
                    OFFSET 0 0 0
                  }
                }
              }
            }
          }
        }
      }
      JOINT Bip01_Spine1
      {
        OFFSET 39.3372 -0.0249863 0
        CHANNELS 6 Xposition Yposition Zposition Zrotation Xrotation Yrotation
        JOINT Bip01_Neck
        {
          OFFSET 34.2837 -15.5934 -4.318e-005
          CHANNELS 6 Xposition Yposition Zposition Zrotation Xrotation Yrotation
          JOINT Bip01_R_Clavicle
          {
            OFFSET -17.9452 -11.3131 -6.19287
            CHANNELS 6 Xposition Yposition Zposition Zrotation Xrotation Yrotation
            JOINT Bip01_R_UpperArm
            {
              OFFSET 17.4439 1.52588e-005 -2.28882e-005
              CHANNELS 6 Xposition Yposition Zposition Zrotation Xrotation Yrotation
              JOINT Bip01_R_Forearm
              {
                OFFSET 30.6251 1.14441e-005 0
                CHANNELS 6 Xposition Yposition Zposition Zrotation Xrotation Yrotation
                JOINT Bip01_R_Hand
                {
                  OFFSET 31.2039 0 0
                  CHANNELS 6 Xposition Yposition Zposition Zrotation Xrotation Yrotation
                  JOINT Bip01_R_Finger0
                  {
                    OFFSET 22.1039 0.255862 -0.37902
                    CHANNELS 6 Xposition Yposition Zposition Zrotation Xrotation Yrotation
                    JOINT Bip01_R_Finger0Nub
                    {
                      OFFSET 12.0552 0 0
                      CHANNELS 6 Xposition Yposition Zposition Zrotation Xrotation Yrotation
                      End Site
                      {
                        OFFSET 0 0 0
                      }
                    }
                  }
                }
              }
            }
          }
          JOINT Bip01_L_Clavicle
          {
            OFFSET -17.9452 -11.3132 6.19281
            CHANNELS 6 Xposition Yposition Zposition Zrotation Xrotation Yrotation
            JOINT Bip01_L_UpperArm
            {
              OFFSET 17.444 0 1.14441e-005
              CHANNELS 6 Xposition Yposition Zposition Zrotation Xrotation Yrotation
              JOINT Bip01_L_Forearm
              {
                OFFSET 30.6251 0 0
                CHANNELS 6 Xposition Yposition Zposition Zrotation Xrotation Yrotation
                JOINT Bip01_L_Hand
                {
                  OFFSET 31.204 0 0
                  CHANNELS 6 Xposition Yposition Zposition Zrotation Xrotation Yrotation
                  JOINT Bip01_L_Finger0
                  {
                    OFFSET 22.1039 0.255856 0.379024
                    CHANNELS 6 Xposition Yposition Zposition Zrotation Xrotation Yrotation
                    JOINT Bip01_L_Finger0Nub
                    {
                      OFFSET 12.0552 0 0
                      CHANNELS 6 Xposition Yposition Zposition Zrotation Xrotation Yrotation
                      End Site
                      {
                        OFFSET 0 0 0
                      }
                    }
                  }
                }
              }
            }
          }
          JOINT Bip01_Neck1
          {
            OFFSET 14.9359 -0.0106278 0
            CHANNELS 6 Xposition Yposition Zposition Zrotation Xrotation Yrotation
            JOINT Bip01_Head
            {
              OFFSET 14.3578 0.505501 0
              CHANNELS 6 Xposition Yposition Zposition Zrotation Xrotation Yrotation
              JOINT BN_Ear_L_01
              {
                OFFSET 3.76994 -2.35629 12.3444
                CHANNELS 6 Xposition Yposition Zposition Zrotation Xrotation Yrotation
                End Site
                {
                  OFFSET 0 0 0
                }
              }
              JOINT BN_Ear_R_01
              {
                OFFSET 3.76995 -2.35622 -12.3442
                CHANNELS 6 Xposition Yposition Zposition Zrotation Xrotation Yrotation
                End Site
                {
                  OFFSET 0 0 0
                }
              }
              JOINT BN_Mouth_01
              {
                OFFSET 11.8395 10.8645 1.27e-005
                CHANNELS 6 Xposition Yposition Zposition Zrotation Xrotation Yrotation
                JOINT BN_Tongue_01
                {
                  OFFSET 9.73752 3.21674 1.016e-005
                  CHANNELS 6 Xposition Yposition Zposition Zrotation Xrotation Yrotation
                  JOINT BN_Tongue_02
                  {
                    OFFSET 9.04304 0.053505 0
                    CHANNELS 6 Xposition Yposition Zposition Zrotation Xrotation Yrotation
                    End Site
                    {
                      OFFSET 0 0 0
                    }
                  }
                }
                JOINT BN_Beard_01
                {
                  OFFSET 6.93466 -0.751793 0
                  CHANNELS 6 Xposition Yposition Zposition Zrotation Xrotation Yrotation
                  JOINT BN_Beard_02
                  {
                    OFFSET 13.0965 1.52588e-005 0
                    CHANNELS 6 Xposition Yposition Zposition Zrotation Xrotation Yrotation
                    End Site
                    {
                      OFFSET 0 0 0
                    }
                  }
                }
              }
              JOINT Bip01_HeadNub
              {
                OFFSET 25.6158 0 0
                CHANNELS 6 Xposition Yposition Zposition Zrotation Xrotation Yrotation
                End Site
                {
                  OFFSET 0 0 0
                }
              }
            }
          }
        }
      }
    }
  }
}
MOTION
Frames:	4
Frame Time:	0.0333333
-43.3411 59.2349 1.37519 93.6159 -81.9825 -177.564 -3.8147e-006 4.76837e-007 -7.10543e-015 -92.9345 -22.518 -81.7382 -18.6385 -9.591 -4.76837e-007 -50.0638 0.327621 179.941 20.9743 7.6294e-006 -0.00129557 22.7721 0.200622 9.55993 20.3015 -7.6294e-006 -0.000929833 7.73177 2.53046 16.9741 21.6394 1.42109e-014 -0.000833512 10.2956 5.51777 30.7497 20.0428 -9.10545 2.87251 -15.6317 8.37453 -1.21638 -22.181 0.421272 -19.7851 -73.0632 -6.87481 170.725 34.2647 -7.10543e-015 -3.55271e-015 -54.7395 5.88959e-006 8.12687e-006 20.4429 7.10543e-015 -3.8147e-006 73.1281 -4.92167e-007 -7.81984e-007 16.5673 -7.62939e-006 5.72205e-006 4.22714 6.55723 9.27849 9.18785 6.94839 0 91.3394 1.01085e-006 -4.06033e-007 1.01907 -2.38418e-007 3.8147e-006 1.25621e-007 -3.94858e-009 5.94037e-008 -21.4611 5.40494 14.0472 -122.858 14.4121 -171.058 34.2647 4.76837e-007 3.8147e-006 -106.707 -1.25191e-005 6.71453e-006 20.4429 1.90735e-006 -3.8147e-006 110.353 5.59868e-006 -1.25032e-005 16.5673 1.90735e-006 3.8147e-006 -29.0248 -5.21231 -4.21418 9.18784 6.9484 -3.8147e-006 89.9962 -2.51422e-007 -1.15562e-005 1.01906 2.38419e-007 3.8147e-006 -179.96 -2.10822e-005 -1.0893e-005 39.331 -0.0241814 -0.000947475 -14.367 2.20452 5.49386 34.2892 -15.5917 5.05447e-005 30.6637 -0.373277 -6.42843 -21.7193 -1.57145 -3.79508 145.252 -33.9749 121.481 17.444 3.8147e-006 0 42.1489 6.81145 -101.78 30.6251 0 1.90735e-006 -21.6608 8.44259e-006 3.1007e-006 31.204 0 -3.55271e-015 -37.0163 82.3874 9.55195 22.1039 0.255854 -0.379039 -8.70663 9.65669 -42.2509 12.0552 0 1.66893e-006 179.96 1.68589e-005 -2.24542e-005 -20.3325 -1.65176 8.51245 154.596 43.6801 -106.613 17.4439 -7.6294e-006 3.8147e-006 39.6617 -48.7679 87.1648 30.6251 -4.76838e-007 0 -63.1325 -8.12724e-006 -1.34694e-005 31.2039 -3.8147e-006 0 -164.764 -73.5035 -163.118 22.1039 0.255854 0.379024 -10.7624 6.07328 10.0774 12.0552 0 3.81469e-006 -1.6142e-007 1.03261e-005 4.23305e-007 14.9354 -0.0106506 0.000170231 1.28798 -0.903701 1.44067 14.3578 0.505471 0 -21.0984 -3.53519 1.6727 3.7699 -2.35629 12.3444 -172.167 32.7141 -81.1406 3.76994 -2.35623 -12.3442 5.88484 29.4885 114.375 11.8394 10.8645 -2.38419e-007 -177.001 -3.70352 178.785 9.73752 3.21675 0 -2.85748 -3.4765e-008 -1.16327e-007 2.55462 -1.10588 -0.153761 4.77834 -2.94618 -1.72235 6.93465 -0.75179 1.77636e-015 -85.1773 -2.85033 -1.72699 13.0966 -7.6294e-006 0 -7.89265 -1.63549 -12.1212 25.6158 0 2.38419e-007 -6.59263e-008 1.08709e-006 -6.07726e-008 
-51.5371 59.327 1.98241 89.4505 -80.5913 178.417 -3.8147e-006 4.76837e-007 -7.10543e-015 -94.5599 -11.8244 -82.0162 -18.6385 -9.591 -4.76837e-007 -50.2422 0.337782 179.808 20.9743 7.6294e-006 -0.00129557 21.1986 0.221176 9.46148 20.3015 -7.6294e-006 -0.000929833 -7.11067 -1.96177 16.3333 21.6394 1.32303e-011 -0.000833512 -16.6334 -8.91393 25.4583 21.3803 -5.19332 2.91394 -8.85665 7.62286 -2.92494 -22.9261 -0.833182 -18.9371 -81.6125 -7.01059 171.607 34.2647 -4.26326e-014 -1.06581e-014 -73.9852 2.85628e-006 9.61861e-006 20.4429 -4.9738e-014 -3.8147e-006 82.7032 -2.55324e-007 -8.23741e-007 16.5673 -7.62939e-006 5.72205e-006 1.40623 7.51937 7.80283 9.18785 6.94839 6.63931e-009 91.2037 1.06806e-005 3.18522e-007 1.01907 -2.38419e-007 3.8147e-006 1.25621e-007 -3.94858e-009 5.94037e-008 -21.1944 3.70488 14.9209 -111.328 11.4338 -170.369 34.2647 4.76837e-007 3.8147e-006 -107.999 -3.15391e-006 9.55705e-006 20.4429 1.90735e-006 -3.8147e-006 118.975 3.65767e-006 -1.32295e-005 16.5673 1.90735e-006 3.8147e-006 -38.1918 -3.30139 -8.46724 9.18784 6.9484 -3.82227e-006 98.8839 -1.96974e-006 -1.13479e-005 1.01906 2.38419e-007 3.8147e-006 -179.96 -2.10822e-005 -1.0893e-005 39.3368 -0.0241814 -0.00192214 -1.65395 3.98651 8.28279 34.2892 -15.5917 5.05498e-005 26.8065 -2.72344 -3.52071 -21.3497 -2.73262 -5.02927 149.596 -38.5901 121.274 17.444 3.8147e-006 0 47.0459 5.97732 -96.8727 30.6251 -7.10544e-015 1.90735e-006 -42.4414 -1.3502e-006 1.21573e-005 31.204 8.8818e-015 1.06581e-014 -0.187705 84.7036 -19.5434 22.1039 0.255854 -0.379039 -8.69947 9.81016 -39.465 12.0552 2.84218e-014 1.66893e-006 179.96 1.68587e-005 -2.24535e-005 -20.5901 -3.32178 7.31874 160.122 58.028 -105.444 17.4439 -7.6294e-006 3.8147e-006 59.5464 -60.271 84.1735 30.6251 -4.76838e-007 0 -71.2798 -5.52991e-006 -1.44909e-005 31.2039 -3.81471e-006 7.10542e-015 -174.179 -73.6852 176.978 22.1039 0.255854 0.379024 -10.7624 6.07328 10.0774 12.0552 1.77636e-014 3.81469e-006 -1.6142e-007 1.03261e-005 4.23305e-007 14.9354 -0.0106506 0.000170231 3.74653 0.260352 4.8445 14.3578 0.505471 4.98016e-009 -14.4223 0.187408 6.76674 3.7699 -2.35629 12.3444 -174.125 24.8657 -75.4309 3.76994 -2.35623 -12.3442 9.06128 24.4769 119.448 11.8394 10.8645 -2.82427e-007 -176.996 -3.71015 178.853 9.73752 3.21675 6.99798e-009 -2.85748 -2.8249e-007 4.07208e-008 2.55462 -1.10588 -0.153761 4.77834 -2.94618 -1.72235 6.93465 -0.75179 -1.63551e-009 -65.7271 -17.5116 1.21186 13.0966 -7.6294e-006 0 4.92168 1.50156 -3.4687 25.6158 -1.42109e-014 2.38419e-007 -6.59263e-008 1.08709e-006 -6.07726e-008 
-60.3349 59.4938 2.585 85.835 -79.0901 174.975 -3.8147e-006 4.76837e-007 0 -96.3019 -0.0997881 -82.0334 -18.6385 -9.591 -4.76837e-007 -50.7191 0.367735 179.441 20.9743 7.62939e-006 -0.00129557 17.8461 0.241605 9.36782 20.3015 -7.6294e-006 -0.000929833 -21.7584 -6.39846 15.8012 21.6394 2.65175e-011 -0.000833512 -45.3211 -24.1879 21.7634 21.9816 -0.693501 3.00181 -1.30584 7.00537 -4.90424 -23.6201 -2.26231 -18.0229 -90.0274 -7.56898 171.816 34.2647 -2.84217e-014 -1.77636e-014 -88.2586 4.22139e-007 1.00333e-005 20.4429 -5.32907e-014 -3.8147e-006 87.1432 -1.65635e-008 -7.96892e-007 16.5673 -7.62939e-006 5.72205e-006 -1.23227 8.78757 6.47493 9.18785 6.94839 1.30224e-008 91.0706 1.90415e-007 -5.13445e-007 1.01907 -2.38419e-007 3.8147e-006 1.25621e-007 -3.94858e-009 5.94037e-008 -20.7158 1.91099 15.802 -104.613 8.25385 -169.4 34.2647 4.76837e-007 3.8147e-006 -107.928 -3.18052e-006 9.5996e-006 20.4429 1.90735e-006 -3.8147e-006 121.356 3.06419e-006 -1.33991e-005 16.5673 1.90735e-006 3.8147e-006 -43.3882 -1.30235 -10.6639 9.18784 6.9484 -3.83073e-006 104.126 -2.94539e-006 -1.10661e-005 1.01906 2.38419e-007 3.8147e-006 -179.96 -2.10823e-005 -1.0893e-005 39.3424 -0.0241814 -0.00287788 12.0859 6.60472 10.7885 34.2892 -15.5917 5.05541e-005 22.9431 -5.4382 -0.499616 -20.805 -3.8316 -6.40543 154.644 -43.4124 121.614 17.444 3.8147e-006 7.10542e-014 53.9388 10.2977 -92.0265 30.6251 0 1.90735e-006 -56.9838 1.7302e-006 5.03252e-006 31.204 3.90799e-014 -7.10542e-015 64.6452 84.5027 -79.9585 22.1039 0.255854 -0.379039 -8.68991 10.1612 -37.1155 12.0552 1.77636e-014 1.66893e-006 179.96 1.68585e-005 -2.24529e-005 -20.6975 -5.00611 5.92396 165.031 71.9413 -103.995 17.4439 -7.6294e-006 3.8147e-006 81.5915 -81.2275 84.5084 30.6251 -4.76838e-007 0 -69.9685 -6.7787e-006 -1.66128e-005 31.2039 -3.81471e-006 7.10542e-015 173.492 -72.141 156.222 22.1039 0.255854 0.379024 -10.7624 6.07328 10.0774 12.0552 1.42109e-014 3.81469e-006 -1.6142e-007 1.03261e-005 4.23306e-007 14.9354 -0.0106506 0.000170231 6.53826 1.57801 8.52967 14.3578 0.505471 1.18339e-008 -6.92772 5.70549 10.9476 3.7699 -2.3563 12.3444 -175.092 7.06386 -75.2441 3.76994 -2.35623 -12.3442 19.514 10.4344 126.444 11.8394 10.8645 3.42364e-008 -176.981 -3.72849 179.03 9.73752 3.21675 1.12793e-007 -2.85749 -4.12131e-007 2.82567e-007 2.55462 -1.10588 -0.153761 4.77834 -2.94618 -1.72235 6.93465 -0.75179 -2.6361e-008 -36.32 -33.469 12.5309 13.0966 -7.6294e-006 7.10543e-015 25.6446 7.0782 12.2434 25.6158 -1.42109e-014 2.38419e-007 -6.59263e-008 1.08709e-006 -6.07726e-008 
-68.8318 59.6232 3.1899 83.2825 -77.5965 172.582 -3.8147e-006 4.76837e-007 -1.42109e-014 -97.9734 11.1028 -81.6854 -18.6385 -9.591 -4.76837e-007 -51.4501 0.417092 178.857 20.9743 7.62939e-006 -0.00129557 14.9933 -1.82139 15.0587 20.3015 -7.6294e-006 -0.000929833 -8.58074 -5.71623 23.5236 21.6394 1.6243e-011 -0.000833512 -37.5069 -21.7993 32.4196 21.6779 3.63281 3.07486 5.82865 6.49302 -6.82642 -24.1435 -3.68482 -17.1396 -97.9665 -8.23089 171.246 34.2647 7.10543e-015 3.55271e-015 -97.3223 -1.23366e-006 9.97301e-006 20.4429 -5.68434e-014 -3.8147e-006 87.066 1.82869e-007 -8.66955e-007 16.5673 -7.62939e-006 5.72205e-006 -3.88608 10.1329 5.52441 9.18785 6.94839 1.91983e-008 90.9362 9.81016e-006 2.7166e-007 1.01907 -2.38419e-007 3.8147e-006 1.25621e-007 -3.94858e-009 5.94037e-008 -20.1033 0.183318 16.6049 -103.593 5.3825 -169.801 34.2647 4.76837e-007 3.8147e-006 -106.871 -3.69142e-006 9.48883e-006 20.4429 1.90735e-006 -3.8147e-006 117.104 -4.51899e-006 -8.80222e-006 16.5673 1.90735e-006 3.8147e-006 -39.5366 -0.927975 -9.91036 9.18784 6.9484 -3.83765e-006 100.59 -2.2373e-006 -1.11639e-005 1.01906 2.38419e-007 3.8147e-006 -179.96 -2.10823e-005 -1.08931e-005 39.347 -0.0241814 -0.00405136 25.2564 9.58661 12.5587 34.2892 -15.5917 5.05548e-005 19.1718 -8.37746 2.37027 -20.104 -4.83106 -7.81151 160.425 -48.1084 122.649 17.444 3.8147e-006 1.74083e-013 61.4849 18.056 -88.1932 30.6251 -7.10544e-015 1.90735e-006 -67.3639 -2.93522e-006 4.97413e-006 31.204 4.79617e-014 0 104.503 79.8333 -116.569 22.1039 0.255854 -0.379038 -8.69441 10.5621 -34.8365 12.0552 2.48691e-014 1.66893e-006 179.96 1.68583e-005 -2.24528e-005 -20.6114 -6.63626 4.43139 162.99 75.9419 -96.0298 17.4439 -7.6294e-006 3.8147e-006 -90.447 -71.948 -96.6346 30.6251 -4.76838e-007 7.10542e-015 -58.8745 -1.95718e-005 -1.37747e-005 31.2039 -3.81471e-006 1.42108e-014 167.922 -70.9611 145.207 22.1039 0.255854 0.379024 -10.7624 6.07327 10.0774 12.0552 -4.26327e-014 3.81469e-006 -1.6142e-007 1.03261e-005 4.23306e-007 14.9354 -0.0106506 0.000170231 9.26894 3.08749 12.1851 14.3578 0.505471 2.06526e-008 2.40072 11.9852 12.9842 3.7699 -2.3563 12.3444 -178.6 -0.268763 -89.2281 3.76994 -2.35623 -12.3442 34.6514 -8.32319 127.213 11.8394 10.8645 7.23414e-007 -176.956 -3.75593 179.294 9.73752 3.21675 3.00793e-007 -2.85749 -6.78482e-007 1.01562e-005 2.55462 -1.10588 -0.153761 4.77834 -2.94618 -1.72235 6.93465 -0.75179 -7.02987e-008 -5.1293 -39.8592 29.6997 13.0966 -7.6294e-006 -1.06581e-014 35.6423 9.69185 20.9569 25.6158 -1.42109e-014 2.38419e-007 -6.59263e-008 1.08709e-006 -6.07726e-008 
